# xmcd
#
# Track frame offsets:
#	150
#	12240
#	25305
#	38385
#	54592
#	64942
#	75542
#	88992
#	103092
#	116842
#	128100
#	149512
#	163312
#	174775
#	187002
#	200335
#	212242
#	223685
#
# Disc length: 3147 seconds
#
# Revision: 0
# Processed by: cddbd v1.5.2PL0 Copyright (c) Steve Scherf et al.
# Submitted via: audiograbber 1.83.01
#
DISCID=080c4912
DTITLE=Various Artist - Blues Brother - Soul Sister [CD1]
DYEAR=1900
DGENRE=R&B
TTITLE0=Sam and Dave - Soul Man
TTITLE1=Bob and Earl - Harlem Shuffle
TTITLE2=Mary Wells - My Guy
TTITLE3=Harold Melvin and The Blue Notes - Wake Up Everybody
TTITLE4=John Lee Hooker - Dimples
TTITLE5=Sam The Sham and The Pharoahs - Wooly Bully
TTITLE6=Ben E. King - Stand By Me
TTITLE7=Martha Reeves and The Vandellas - Heatwave
TTITLE8=Jimmy Ruffin - What Becomes Of The Broken Hearted
TTITLE9=Irma Thomas - Set Me Free
TTITLE10=Ike and Tina Turner - Nutbush City Limits
TTITLE11=Ray Charles - Baby Let Me Hold Your Hand
TTITLE12=Lou Rawls - Kiddio
TTITLE13=Doris Troy - Just One Look
TTITLE14=Percy Sledge - When A Man Loves A Woman
TTITLE15=Drifters - Under The Boardwalk
TTITLE16=Rufus Thomas - Walking The Dog
TTITLE17=Carla Thomas - BABY
EXTD=
EXTT0=
EXTT1=
EXTT2=
EXTT3=
EXTT4=
EXTT5=
EXTT6=
EXTT7=
EXTT8=
EXTT9=
EXTT10=
EXTT11=
EXTT12=
EXTT13=
EXTT14=
EXTT15=
EXTT16=
EXTT17=
PLAYORDER=
